<svg id="Capa_1" enable-background="new 0 0 512.004 512.004" height="512" viewBox="0 0 512.004 512.004" width="512" xmlns="http://www.w3.org/2000/svg"><g><g><path d="m504.503 115.045-244.503-106.257c-2.548-1.111-5.444-1.111-7.993 0l-244.504 106.257z" fill="#c7c2c9"/><path d="m260 8.787c-2.548-1.111-5.444-1.111-7.993 0l-23.319 10.134 220.816 96.124h55z" fill="#a199a4"/><path d="m53.503 474.423v-36.713c0-4.418 3.582-8 8-8h75c4.418 0 8 3.582 8 8v36.714h-91z" fill="#8b808e"/><path d="m210.503 474.423v-36.713c0-4.418 3.582-8 8-8h75c4.418 0 8 3.582 8 8v36.714h-91z" fill="#8b808e"/><path d="m367.503 474.423v-36.713c0-4.418 3.582-8 8-8h75c4.418 0 8 3.582 8 8v36.714h-91z" fill="#8b808e"/><g fill="#766d78"><path d="m450.503 429.71h-30c4.418 0 8 3.582 8 8v36.713h30v-36.713c0-4.418-3.581-8-8-8z"/><path d="m293.503 429.71h-30c4.418 0 8 3.582 8 8v36.713h30v-36.713c0-4.418-3.581-8-8-8z"/><path d="m136.503 429.71h-30c4.418 0 8 3.582 8 8v36.713h30v-36.713c0-4.418-3.581-8-8-8z"/><path d="m504.503 115.045v24.622c0 11.046-8.954 20-20 20h-457c-11.046 0-20-8.954-20-20v-24.622z"/></g><path d="m474.503 115.045v24.622c0 11.046-8.954 20-20 20h30c11.046 0 20-8.954 20-20v-24.622z" fill="#655e67"/><path d="m484.503 459.423h-457c-11.046 0-20 8.954-20 20v19.622c0 2.761 2.239 5 5 5h487c2.761 0 5-2.239 5-5v-19.622c0-11.045-8.954-20-20-20z" fill="#766d78"/><path d="m484.503 459.423h-30c11.046 0 20 8.955 20 20v19.622c0 2.761-2.239 5-5 5h30c2.761 0 5-2.239 5-5v-19.622c0-11.045-8.954-20-20-20z" fill="#655e67"/><g><path d="m386.503 181.315h53v248.39h-53z" fill="#b0aab3"/><path d="m409.503 429.705h30" fill="#a199a4"/><g><path d="m393.093 184.775c-1.9 9.63-10.4 16.89-20.59 16.89-11.6 0-21-9.4-21-21s9.4-21 21-21h81c11.6 0 21 9.4 21 21s-9.4 21-21 21c-10.19 0-18.69-7.26-20.59-16.89z" fill="#b0aab3"/><g><path d="m453.503 159.665h-35c11.6 0 21 9.4 21 21 0 4.285-1.289 8.266-3.492 11.587 3.758 5.666 10.183 9.413 17.492 9.413 11.6 0 21-9.4 21-21s-9.4-21-21-21z" fill="#a199a4"/></g><path d="m439.503 429.705v-262.265h-30v262.265" fill="#a199a4"/></g></g><circle cx="256.003" cy="64.545" fill="#766d78" r="22.5"/><g><path d="m229.503 181.315h53v248.39h-53z" fill="#b0aab3"/><path d="m252.503 429.705h30" fill="#a199a4"/><g><path d="m236.093 184.775c-1.9 9.63-10.4 16.89-20.59 16.89-11.6 0-21-9.4-21-21s9.4-21 21-21h81c11.6 0 21 9.4 21 21s-9.4 21-21 21c-10.19 0-18.69-7.26-20.59-16.89z" fill="#b0aab3"/><g><path d="m296.503 159.665h-35c11.6 0 21 9.4 21 21 0 4.285-1.289 8.266-3.492 11.587 3.758 5.666 10.183 9.413 17.492 9.413 11.6 0 21-9.4 21-21s-9.4-21-21-21z" fill="#a199a4"/></g><path d="m282.503 429.705v-262.265h-30v262.265" fill="#a199a4"/></g></g><g><path d="m72.503 181.315h53v248.39h-53z" fill="#b0aab3"/><path d="m95.503 429.705h30" fill="#a199a4"/><g><path d="m79.093 184.775c-1.9 9.63-10.4 16.89-20.59 16.89-11.6 0-21-9.4-21-21s9.4-21 21-21h81c11.6 0 21 9.4 21 21s-9.4 21-21 21c-10.19 0-18.69-7.26-20.59-16.89z" fill="#b0aab3"/><g><path d="m139.503 159.665h-35c11.6 0 21 9.4 21 21 0 4.285-1.289 8.266-3.492 11.587 3.758 5.666 10.183 9.413 17.492 9.413 11.6 0 21-9.4 21-21s-9.4-21-21-21z" fill="#a199a4"/></g><path d="m125.503 429.705v-262.265h-30v262.265" fill="#a199a4"/></g></g></g><path d="m256.003 34.545c-16.542 0-30 13.458-30 30s13.458 30 30 30 30-13.458 30-30-13.458-30-30-30zm0 45c-8.271 0-15-6.729-15-15s6.729-15 15-15 15 6.729 15 15-6.728 15-15 15zm255.994 35.38c-.053-2.653-1.653-5.632-4.602-6.8l-244.398-106.213c-4.444-1.938-9.544-1.938-13.979-.003l-244.407 106.216c-2.575 1.099-4.707 3.826-4.607 7.024v24.518c0 15.164 12.336 27.5 27.5 27.5h5.906c-2.171 4.021-3.406 8.618-3.406 13.499 0 15.715 12.785 28.5 28.5 28.5 2.229 0 4.401-.284 6.5-.778v213.822c-9.747-1.362-19 5.441-19 15.5v14.213h-18.5c-15.164 0-27.5 12.336-27.5 27.5v19.622c0 6.893 5.607 12.5 12.5 12.5h487c6.893 0 12.5-5.607 12.5-12.5v-19.622c0-15.164-12.336-27.5-27.5-27.5h-18.5v-14.213c-.008-10.524-9.295-16.545-19-15.5v-213.822c2.099.494 4.271.778 6.5.778 15.715 0 28.5-12.785 28.5-28.5 0-4.881-1.235-9.478-3.406-13.499h5.906c15.164 0 27.5-12.336 27.5-27.5v-24.517c-.003-.064.005-.05-.007-.225zm-453.494 79.24c-7.444 0-13.5-6.056-13.5-13.5 0-7.434 6.04-13.482 13.471-13.499h81.058c7.431.016 13.471 6.064 13.471 13.499 0 7.444-6.056 13.5-13.5 13.5-6.428 0-11.992-4.56-13.231-10.841-.802-4.063-4.745-6.711-8.81-5.907-4.064.802-6.709 4.746-5.907 8.81.986 5 3.266 9.483 6.448 13.133v129.459c0 4.142 3.357 7.5 7.5 7.5s7.5-3.358 7.5-7.5v-120.431c2.099.494 4.271.778 6.5.778 15.715 0 28.5-12.785 28.5-28.5 0-4.881-1.235-9.478-3.406-13.499h25.813c-2.171 4.021-3.406 8.618-3.406 13.499 0 15.715 12.785 28.5 28.5 28.5 2.229 0 4.401-.284 6.5-.778v213.822c-9.751-1.367-19 5.444-19 15.5v14.213h-51v-14.213c-.008-10.521-9.294-16.546-19-15.5v-58.391c0-4.142-3.357-7.5-7.5-7.5s-7.5 3.358-7.5 7.5v58.391h-38v-222.851c3.182-3.649 5.462-8.132 6.448-13.133.802-4.063-1.843-8.008-5.907-8.81-4.065-.8-8.008 1.843-8.81 5.907-1.239 6.283-6.804 10.842-13.232 10.842zm263.094-26.998h25.813c-2.171 4.021-3.406 8.618-3.406 13.499 0 15.715 12.785 28.5 28.5 28.5 2.229 0 4.401-.284 6.5-.778v213.822c-9.755-1.373-18.999 5.448-19 15.5v14.213h-51v-14.213c-.008-10.522-9.295-16.546-19-15.5v-213.822c2.099.494 4.271.778 6.5.778 15.715 0 28.5-12.785 28.5-28.5-.001-4.881-1.236-9.479-3.407-13.499zm-27.594 270.543v14.213h-76v-14.213c0-.276.225-.5.5-.5h75c.276 0 .5.224.5.5zm2.5-243.545c-6.428 0-11.992-4.56-13.231-10.841-.802-4.063-4.747-6.711-8.81-5.907-4.064.802-6.709 4.746-5.907 8.81.986 5 3.266 9.483 6.448 13.133v222.85h-38v-222.851c3.182-3.649 5.462-8.132 6.448-13.133.802-4.063-1.843-8.008-5.907-8.81-4.064-.8-8.008 1.843-8.81 5.907-1.239 6.282-6.804 10.841-13.231 10.841-7.444 0-13.5-6.056-13.5-13.5 0-7.434 6.04-13.482 13.471-13.499h81.058c7.431.016 13.471 6.064 13.471 13.499 0 7.445-6.055 13.501-13.5 13.501zm-235.5 243.545c0-.276.225-.5.5-.5h75c.275 0 .5.224.5.5v14.213h-76zm423.5 29.213c6.893 0 12.5 5.607 12.5 12.5v17.122h-482v-17.122c0-6.893 5.607-12.5 12.5-12.5zm-34-29.713c.275 0 .5.224.5.5v14.213h-76v-14.213c0-.276.225-.5.5-.5zm3-243.045c-6.428 0-11.992-4.56-13.231-10.841-.802-4.063-4.745-6.711-8.81-5.907-4.064.802-6.709 4.746-5.907 8.81.986 5 3.266 9.483 6.448 13.133v222.85h-38v-222.851c3.182-3.649 5.462-8.132 6.448-13.133.802-4.063-1.843-8.008-5.907-8.81-4.062-.8-8.008 1.843-8.81 5.907-1.239 6.282-6.804 10.841-13.231 10.841-7.444 0-13.5-6.056-13.5-13.5 0-7.434 6.04-13.482 13.471-13.499h81.058c7.431.016 13.471 6.064 13.471 13.499 0 7.445-6.055 13.501-13.5 13.501zm43.5-54.498c0 6.893-5.607 12.5-12.5 12.5h-457c-6.893 0-12.5-5.607-12.5-12.5v-17.122h350.188c4.143 0 7.5-3.358 7.5-7.5s-3.357-7.5-7.5-7.5h-321.613l211.426-91.883c.635-.277 1.363-.277 2.006.003l211.418 91.879h-68.238c-4.143 0-7.5 3.358-7.5 7.5s3.357 7.5 7.5 7.5h96.812v17.123z" fill="#1e1d21"/></g></svg>