<?xml version="1.0"?>
<svg xmlns="http://www.w3.org/2000/svg" xmlns:xlink="http://www.w3.org/1999/xlink" viewBox="0 0 512 512" width="512" height="512"><defs><linearGradient id="New_Gradient_Swatch_5" x1="176.686" y1="439.314" x2="543.314" y2="72.686" gradientUnits="userSpaceOnUse"><stop offset="0" stop-color="#e3dede"/><stop offset="1" stop-color="#fff"/></linearGradient><linearGradient id="New_Gradient_Swatch_7" x1="280.354" y1="128.311" x2="439.646" y2="-30.981" gradientUnits="userSpaceOnUse"><stop offset="0" stop-color="#816a6a"/><stop offset="1" stop-color="#9d8b8b"/></linearGradient><linearGradient id="New_Gradient_Swatch_7-2" x1="274.354" y1="536.981" x2="445.646" y2="365.689" xlink:href="#New_Gradient_Swatch_7"/><linearGradient id="New_Gradient_Swatch_20" x1="247.314" y1="303.314" x2="497.314" y2="53.314" gradientUnits="userSpaceOnUse"><stop offset="0" stop-color="#83cacf"/><stop offset="1" stop-color="#dcf0f1"/></linearGradient><linearGradient id="New_Gradient_Swatch_17" x1="503.627" y1="292.627" x2="366.373" y2="155.373" gradientTransform="matrix(-1, 0, 0, 1, 736, 0)" gradientUnits="userSpaceOnUse"><stop offset="0" stop-color="#8177b8"/><stop offset="1" stop-color="#aba4d0"/></linearGradient><linearGradient id="New_Gradient_Swatch_20-2" x1="104" y1="432" x2="368" y2="168" xlink:href="#New_Gradient_Swatch_20"/><linearGradient id="New_Gradient_Swatch_17-2" x1="-216.177" y1="229.55" x2="-17.314" y2="30.686" gradientTransform="matrix(1, 0, 0, -1, 272, 512)" xlink:href="#New_Gradient_Swatch_17"/></defs><g id="_05-receipt" data-name="05-receipt"><g id="linear_color-2" data-name="linear color"><g id="color"><rect x="224" y="16" width="272" height="480" rx="16" style="fill:url(#New_Gradient_Swatch_5)"/><path d="M480,16H240a16,16,0,0,0-16,16V71.956H496V32A16,16,0,0,0,480,16Z" style="fill:url(#New_Gradient_Swatch_7)"/><path d="M224,480a16,16,0,0,0,16,16H480a16,16,0,0,0,16-16V416.043H224Z" style="fill:url(#New_Gradient_Swatch_7-2)"/></g><path d="M264,112V256a32,32,0,0,1-32,32H424a32,32,0,0,0,32-32V112Z" style="fill:url(#New_Gradient_Swatch_20)"/><path d="M361,160a32,32,0,0,1,32,32v64a32,32,0,0,0,32,32H241a32,32,0,0,1-32-32V192a32,32,0,0,0-32-32Z" style="fill:url(#New_Gradient_Swatch_17)"/><path d="M176,160a32,32,0,0,0-32,32V408a32,32,0,0,1-32,32H296a32,32,0,0,0,32-32V192a32,32,0,0,1,32-32Z" style="fill:url(#New_Gradient_Swatch_20-2)"/><path d="M264,408V376l-32,16-32-16-24,16-32-16-32,16L80,376v32a32,32,0,0,0,32,32H296A32,32,0,0,1,264,408Z" style="fill:url(#New_Gradient_Swatch_17-2)"/><path d="M480,6H240a26.03,26.03,0,0,0-26,26V150H176a42.047,42.047,0,0,0-42,42V369.82l-22,11L84.472,367.056A10,10,0,0,0,70,376v32a42.047,42.047,0,0,0,42,42H214v30a26.03,26.03,0,0,0,26,26H480a26.03,26.03,0,0,0,26-26V32A26.03,26.03,0,0,0,480,6ZM240,26H480a6.006,6.006,0,0,1,6,6V61.957H234V32A6.006,6.006,0,0,1,240,26Zm-6,55.957H486V406.04H338V298h86c.668-.024,1.347.029,2.009-.051A42.05,42.05,0,0,0,466,256V112a10,10,0,0,0-10-10H264a10,10,0,0,0-10,10v38H234Zm190.5,196.03A22.021,22.021,0,0,1,403,256V192a42.047,42.047,0,0,0-42-42c-.169,0-.333.017-.5.025-.167-.008-.331-.025-.5-.025H274V122H446V256A22.021,22.021,0,0,1,424.5,277.987ZM360,170c.169,0,.333-.017.5-.025.167.008.331.025.5.025a22.025,22.025,0,0,1,22,22v64a41.739,41.739,0,0,0,6.242,22H338V192A22.025,22.025,0,0,1,360,170Zm-184,0H324.235A41.754,41.754,0,0,0,318,192V408c-.862,29.08-43.135,29.075-44,0V376a10,10,0,0,0-14.472-8.944L232,380.82l-27.528-13.764a10,10,0,0,0-10.019.624l-19.172,12.78L154,369.82V192A22.025,22.025,0,0,1,176,170ZM90,408V392.18l17.528,8.764a10,10,0,0,0,8.944,0L144,387.18l27.528,13.764a10,10,0,0,0,10.019-.624l19.172-12.78,26.809,13.4a10,10,0,0,0,8.944,0L254,392.18V408a42.046,42.046,0,0,0,6.2,22H112A22.025,22.025,0,0,1,90,408Zm390,78H240a6.006,6.006,0,0,1-6-6V450h62a42,42,0,0,0,37.938-23.96H486V480A6.006,6.006,0,0,1,480,486Z"/><path d="M386.044,446.021H335.087a10,10,0,0,0,0,20h50.957a10,10,0,0,0,0-20Z"/><path d="M229,282h17a14.015,14.015,0,0,1,14,14v1a14.015,14.015,0,0,1-14,14H220.791a5.508,5.508,0,0,1-5.508-5.6l.02-1.038a10,10,0,0,0-9.81-10.186c-.064,0-.128,0-.192,0a10,10,0,0,0-9.994,9.812l-.02,1.046A25.507,25.507,0,0,0,220.791,331H228v6a10,10,0,0,0,20,0v-6.064A34.039,34.039,0,0,0,280,297v-1a34.038,34.038,0,0,0-34-34H229a14,14,0,0,1,0-28h24.812a5.506,5.506,0,0,1,5.5,5.745,10,10,0,0,0,19.983.858A25.51,25.51,0,0,0,253.812,214H248v-6a10,10,0,0,0-20,0v6.025A33.995,33.995,0,0,0,229,282Z"/></g></g></svg>
