<svg height="482pt" viewBox="-10 0 482 482.865" width="482pt" xmlns="http://www.w3.org/2000/svg"><path d="m45.339844 12h-20c-7.125.007812-12.898438 5.785156-12.90625 12.910156v15.003906h20v-15.003906c.007812-7.125 5.78125-12.902344 12.90625-12.910156zm0 0" fill="#d4e1f4"/><path d="m192.820312 145.53125c-2.84375 0-5.292968 1.992188-5.875 4.773438 1.894532 1.519531 4.265626 2.3125 6.691407 2.238281 3.375 0 4.761719-.933594 7.058593-2.480469.863282-.582031 1.828126-1.230469 2.945313-1.847656-3.304687-1.835938-7.039063-2.761719-10.820313-2.683594zm0 0" fill="#d4e1f4"/><path d="m12.433594 51.914062h20v264.894532h-20zm0 0" fill="#d4e1f4"/><path d="m32.433594 365.242188v-36.433594h-20v36.433594c.007812 7.128906 5.78125 12.902343 12.90625 12.910156h20c-7.125-.007813-12.898438-5.78125-12.90625-12.910156zm0 0" fill="#d4e1f4"/><path d="m197.609375 0h-172.269531c-13.75.015625-24.890625 11.160156-24.90625 24.910156v340.332032c.015625 13.75 11.15625 24.894531 24.90625 24.910156h147.480468c3.3125 0 6-2.6875 6-6s-2.6875-6-6-6h-147.480468c-7.125-.007813-12.898438-5.78125-12.90625-12.910156v-36.433594h160.386718v-12h-160.386718v-264.894532h198.082031v99.714844c0 3.316406 2.6875 6 6 6 3.316406 0 6-2.683594 6-6v-126.71875c-.015625-13.75-11.15625-24.894531-24.90625-24.910156zm-185.175781 39.914062v-15.003906c.007812-7.125 5.78125-12.902344 12.90625-12.910156h172.269531c7.125.007812 12.898437 5.785156 12.90625 12.910156v15.003906zm0 0" fill="#0635c9"/><path d="m92.042969 347.480469c-3.316407 0-6 2.6875-6 6s2.683593 6 6 6h38.863281c3.316406 0 6-2.6875 6-6s-2.683594-6-6-6zm0 0" fill="#0635c9"/><g fill="#1ae5be"><path d="m456.433594 470.792969h-1.316406c-6.699219-.683594-11.800782-6.320313-11.808594-13.058594v-77.382813c-.027344-22.671874-18.398438-41.042968-41.070313-41.070312h-56.835937v-187.75c0-3.316406-2.6875-6-6-6-4.964844-.066406-9.808594 1.53125-13.765625 4.53125-2.300781 1.546875-3.6875 2.480469-7.0625 2.480469-3.371094 0-4.761719-.933594-7.058594-2.480469-8.183594-6.042969-19.347656-6.042969-27.53125 0-2.300781 1.546875-3.6875 2.480469-7.058594 2.480469-3.375 0-4.761719-.933594-7.058593-2.480469-8.179688-6.042969-19.347657-6.042969-27.527344 0-2.300782 1.546875-3.683594 2.480469-7.058594 2.480469s-4.761719-.933594-7.058594-2.480469c-8.183594-6.042969-19.34375-6.042969-27.527344 0-2.296874 1.546875-3.683593 2.480469-7.058593 2.480469-3.371094 0-4.757813-.933594-7.054688-2.480469-3.957031-3.003906-8.800781-4.597656-13.761719-4.53125-3.316406 0-6 2.683594-6 6v240.4375c.023438 21.097656 17.121094 38.195312 38.21875 38.222656 1.105469 0 2.199219-.058594 3.277344-.152344h84.753906v11.691407c.027344 22.671875 18.398438 41.042969 41.070313 41.070312h120.46875c.601563.042969 1.207031.0625 1.824219.0625 3.332031 0 6.03125-2.699219 6.03125-6.03125s-2.699219-6.03125-6.03125-6.03125zm-277.613282-78.824219v-232.660156c.335938.21875.683594.453125 1.054688.699218 8.179688 6.042969 19.347656 6.042969 27.527344 0 2.300781-1.546874 3.683594-2.480468 7.054687-2.480468 3.371094 0 4.761719.933594 7.058594 2.484375 8.183594 6.039062 19.347656 6.039062 27.527344 0 2.300781-1.550781 3.6875-2.484375 7.058593-2.484375 3.375 0 4.761719.933594 7.058594 2.484375 8.183594 6.039062 19.347656 6.039062 27.53125 0 2.300782-1.550781 3.683594-2.484375 7.058594-2.484375 3.371094 0 4.761719.933594 7.058594 2.484375 8.183594 6.039062 19.347656 6.039062 27.53125 0 .375-.253907.726562-.488281 1.0625-.703125v179.972656h-64.140625c-.105469 0-.210938 0-.316407.007812-.257812-.003906-.519531-.007812-.78125-.007812-20.371093.023438-36.882812 16.535156-36.90625 36.90625v15.78125c.058594 9.40625-4.925781 18.125-13.0625 22.84375-8.136718 4.71875-18.175781 4.71875-26.3125 0-8.136718-4.71875-13.121093-13.4375-13.0625-22.84375zm54.128907 26.070312c6.628906-7.0625 10.3125-16.382812 10.308593-26.070312v-15.78125c.085938-13.695312 11.214844-24.75 24.90625-24.75 13.695313 0 24.820313 11.054688 24.90625 24.75v41.851562zm101.191406 52.753907c-16.046875-.015625-29.050781-13.019531-29.070313-29.066407v-65.539062c.007813-9.222656-3.453124-18.113281-9.695312-24.90625h106.863281c16.046875.015625 29.054688 13.023438 29.070313 29.070312v77.382813c-.003906 4.609375 1.261718 9.128906 3.667968 13.058594zm0 0"/><path d="m225.542969 222.917969c0 3.3125 2.683593 6 6 6h78.730469c3.3125 0 6-2.6875 6-6s-2.6875-6-6-6h-78.730469c-3.316407 0-6 2.6875-6 6zm0 0"/><path d="m201.949219 228.917969h12.753906c3.3125 0 6-2.6875 6-6s-2.6875-6-6-6h-12.753906c-3.3125 0-6 2.6875-6 6s2.6875 6 6 6zm0 0"/><path d="m310.273438 250.472656h-78.730469c-3.316407 0-6 2.683594-6 6 0 3.3125 2.683593 6 6 6h78.730469c3.3125 0 6-2.6875 6-6 0-3.316406-2.6875-6-6-6zm0 0"/><path d="m201.949219 262.472656h12.753906c3.3125 0 6-2.6875 6-6 0-3.316406-2.6875-6-6-6h-12.753906c-3.3125 0-6 2.683594-6 6 0 3.3125 2.6875 6 6 6zm0 0"/><path d="m310.273438 284.023438h-78.730469c-3.316407 0-6 2.6875-6 6s2.683593 6 6 6h78.730469c3.3125 0 6-2.6875 6-6s-2.6875-6-6-6zm0 0"/><path d="m220.703125 290.023438c0-3.3125-2.6875-6-6-6h-12.753906c-3.3125 0-6 2.6875-6 6s2.6875 6 6 6h12.753906c3.3125 0 6-2.6875 6-6zm0 0"/><path d="m201.949219 195.367188h56.332031c3.316406 0 6-2.6875 6-6 0-3.316407-2.683594-6-6-6h-56.332031c-3.3125 0-6 2.683593-6 6 0 3.3125 2.6875 6 6 6zm0 0"/><path d="m341.738281 387.570312c4.167969.003907 7.542969 3.382813 7.550781 7.550782 0 3.3125 2.683594 6 6 6 3.3125 0 6-2.6875 6-6-.011718-8.480469-5.484374-15.988282-13.550781-18.601563v-2.398437c0-3.316406-2.6875-6-6-6-3.316406 0-6 2.683594-6 6v2.398437c-9.164062 2.949219-14.8125 12.132813-13.316406 21.640625 1.492187 9.511719 9.691406 16.515625 19.316406 16.511719 4.167969-.027344 7.570313 3.328125 7.597657 7.5.027343 4.167969-3.328126 7.570313-7.5 7.597656-.03125 0-.0625 0-.097657 0-.035156 0-.066406 0-.101562 0-4.128907-.054687-7.449219-3.414062-7.453125-7.542969 0-3.316406-2.6875-6-6-6-3.316406 0-6 2.683594-6 6 .011718 8.480469 5.480468 15.988282 13.550781 18.597657v3.015625c0 3.3125 2.6875 6 6 6s6-2.6875 6-6v-3.015625c9.160156-2.949219 14.808594-12.132813 13.316406-21.640625-1.496093-9.507813-9.691406-16.511719-19.316406-16.511719-2.726563.046875-5.265625-1.382813-6.640625-3.738281-1.378906-2.355469-1.378906-5.265625 0-7.621094 1.375-2.355469 3.914062-3.785156 6.640625-3.738281zm0 0"/><path d="m405.234375 430.089844h-22.445313c-3.3125 0-6 2.6875-6 6 0 3.316406 2.6875 6 6 6h22.445313c3.3125 0 6-2.683594 6-6 0-3.3125-2.6875-6-6-6zm0 0"/><path d="m405.234375 402.980469h-22.445313c-3.3125 0-6 2.6875-6 6s2.6875 6 6 6h22.445313c3.3125 0 6-2.6875 6-6s-2.6875-6-6-6zm0 0"/><path d="m405.234375 375.867188h-22.445313c-3.3125 0-6 2.6875-6 6 0 3.316406 2.6875 6 6 6h22.445313c3.3125 0 6-2.683594 6-6 0-3.3125-2.6875-6-6-6zm0 0"/></g></svg>