<svg height="512pt" viewBox="0 0 512 511" width="512pt" xmlns="http://www.w3.org/2000/svg"><path d="m504.445312 233.402344v262.878906c0 2.015625-.847656 3.839844-2.207031 5.109375-1.257812 1.207031-2.960937 1.941406-4.84375 1.941406h-482.789062c-1.824219 0-3.472657-.683593-4.722657-1.832031-1.429687-1.269531-2.328124-3.144531-2.328124-5.21875v-262.878906l37.410156-17.800782 206.390625-98.210937c2.941406-1.402344 6.347656-1.402344 9.289062 0zm0 0" fill="#1ab975"/><path d="m504.445312 233.402344v229.707031h-452.425781c-1.824219 0-3.476562-.683594-4.726562-1.832031-1.429688-1.269532-2.328125-3.140625-2.328125-5.21875v-240.457032l206.390625-98.210937c2.941406-1.402344 6.347656-1.402344 9.289062 0zm0 0" fill="#1ed688"/><path d="m504.445312 233.402344-243.796874 116.015625c-2.941407 1.398437-6.355469 1.398437-9.296876 0l-243.796874-116.015625 243.796874-116.011719c2.941407-1.398437 6.355469-1.398437 9.296876 0zm0 0" fill="#1ab975"/><path d="m502.238281 501.390625c-1.257812 1.207031-2.960937 1.941406-4.84375 1.941406h-482.789062c-1.824219 0-3.472657-.683593-4.722657-1.832031l4.835938-5.773438 168.261719-178.847656 68.375 32.535156c2.941406 1.402344 6.347656 1.402344 9.289062 0l68.375-32.535156 168.261719 178.847656s1.9375 2.199219 4.957031 5.664063zm0 0" fill="#35e298"/><path d="m502.238281 501.390625c-1.257812 1.207031-2.960937 1.941406-4.84375 1.941406h-482.789062c-1.824219 0-3.472657-.683593-4.722657-1.832031l4.835938-5.773438 32.484375-34.53125c.03125.023438.058594.050782.089844.082032 1.25 1.148437 2.902343 1.832031 4.726562 1.832031h414.582031l30.679688 32.617187s1.9375 2.199219 4.957031 5.664063zm0 0" fill="#1ed688"/><path d="m44.964844 215.601562v35.601563l-37.410156-17.800781zm0 0" fill="#169b62"/><path d="m432.148438 18.269531v249.53125l-171.503907 81.613281c-2.941406 1.402344-6.347656 1.402344-9.289062 0l-171.503907-81.613281v-249.53125c0-5.640625 4.5625-10.214843 10.203126-10.214843h331.890624c5.640626 0 10.203126 4.574218 10.203126 10.214843zm0 0" fill="#ebebf0"/><path d="m432.148438 228.132812v39.667969l-171.503907 81.613281c-2.941406 1.402344-6.347656 1.402344-9.289062 0l-171.503907-81.613281v-39.667969l171.503907 81.613282c2.941406 1.402344 6.347656 1.402344 9.289062 0zm0 0" fill="#d2d2d7"/><path d="m194.019531 80.109375h201.460938c4.171875 0 7.554687-3.382813 7.554687-7.554687 0-4.171876-3.382812-7.554688-7.554687-7.554688h-201.460938c-4.175781 0-7.558593 3.382812-7.558593 7.554688 0 4.171874 3.382812 7.554687 7.558593 7.554687zm0 0"/><path d="m186.359375 120.371094h209.121094c4.171875 0 7.554687-3.382813 7.554687-7.554688s-3.382812-7.554687-7.554687-7.554687h-209.121094c-4.171875 0-7.554687 3.382812-7.554687 7.554687s3.382812 7.554688 7.554687 7.554688zm0 0"/><path d="m116.519531 160.632812h278.960938c4.171875 0 7.554687-3.382812 7.554687-7.554687 0-4.175781-3.382812-7.554687-7.554687-7.554687h-278.960938c-4.171875 0-7.554687 3.378906-7.554687 7.554687 0 4.171875 3.382812 7.554687 7.554687 7.554687zm0 0"/><path d="m116.519531 200.894531h208.957031c4.171876 0 7.554688-3.382812 7.554688-7.554687 0-4.175782-3.382812-7.558594-7.554688-7.558594h-208.957031c-4.171875 0-7.554687 3.382812-7.554687 7.558594 0 4.171875 3.382812 7.554687 7.554687 7.554687zm0 0"/><path d="m116.519531 241.152344h208.957031c4.171876 0 7.554688-3.378906 7.554688-7.554688 0-4.171875-3.382812-7.554687-7.554688-7.554687h-208.957031c-4.171875 0-7.554687 3.382812-7.554687 7.554687 0 4.175782 3.382812 7.554688 7.554687 7.554688zm0 0"/><path d="m370.5 205.554688c-6.015625-2.230469-11.945312-3.390626-11.945312-8.457032 0-8.671875 11.378906-5.144531 19.46875-2.542968 5.417968-.332032 12.421874-11.679688-6.726563-14.984376v-5.453124c0-3.597657-2.914063-6.511719-6.507813-6.511719-3.597656 0-6.511718 2.914062-6.511718 6.511719v6.339843c-.09375.0625-12.515625 2.503907-12.515625 17.121094 0 12.636719 9.011719 16.023437 16.253906 18.746094 7.25 2.722656 10.453125 4.175781 10.453125 10.054687 0 7.492188-5.488281 6.761719-8.808594 7.34375-8.546875-.269531-8.085937-6.617187-13.375-6.617187-3.308594 0-5.972656 3.652343-5.972656 6.675781 0 8.554688 13.828125 11.785156 13.914062 11.832031h.050782v5.480469c0 3.59375 2.914062 6.511719 6.511718 6.511719 3.59375 0 6.507813-2.917969 6.507813-6.511719v-5.617188h.027344c.484375-.359374 13.9375-2.84375 13.9375-19.582031 0-16.410156-13.484375-19.378906-14.761719-20.339843zm0 0"/><path d="m146.085938 111.339844c-8.542969-.269532-8.082032-6.617188-13.375-6.617188-3.308594 0-5.96875 3.652344-5.96875 6.675782 0 8.554687 13.824218 11.785156 13.910156 11.832031h.050781v5.480469c0 3.59375 2.917969 6.511718 6.511719 6.511718 3.597656 0 6.511718-2.917968 6.511718-6.511718v-5.617188h.027344c.484375-.359375 13.9375-2.84375 13.9375-19.582031 0-16.410157-13.484375-19.382813-14.761718-20.339844-6.015626-2.230469-11.949219-3.390625-11.949219-8.457031 0-8.671875 11.378906-5.144532 19.472656-2.542969 5.417969-.332031 12.421875-11.679687-6.726563-14.984375v-5.453125c0-3.597656-2.914062-6.511719-6.511718-6.511719-3.59375 0-6.511719 2.914063-6.511719 6.511719v6.339844c-.089844.066406-12.515625 2.503906-12.515625 17.121093 0 12.640626 9.015625 16.023438 16.257812 18.746094 7.246094 2.722656 10.449219 4.175782 10.449219 10.054688 0 7.492187-5.484375 6.761718-8.808593 7.34375zm0 0"/><path d="m507.6875 226.582031-67.984375-32.355469v-186.171874c0-4.171876-3.371094-7.554688-7.554687-7.554688h-352.296876c-4.183593 0-7.554687 3.382812-7.554687 7.554688v186.171874l-67.984375 32.355469c-2.640625 1.25-4.3125 3.910157-4.3125 6.820313v262.878906c0 8.058594 6.558594 14.605469 14.605469 14.605469h141.023437c4.171875 0 7.558594-3.371094 7.558594-7.554688 0-4.167969-3.386719-7.554687-7.558594-7.554687h-130.585937l159.667969-169.710938 63.390624 30.167969c5.046876 2.40625 10.820313 2.367187 15.796876.011719l63.390624-30.171875 54.050782 57.449219c1.480468 1.570312 3.484375 2.375 5.5 2.375 6.570312 0 10.035156-7.914063 5.5-12.730469l-50.71875-53.910157c75.679687-36.011718 141.410156-67.300781 155.269531-73.898437v238.925781l-83.839844-89.109375c-2.859375-3.039062-7.644531-3.191406-10.675781-.332031-3.042969 2.863281-3.183594 7.648438-.332031 10.679688l84.914062 90.253906h-301.105469c-4.179687 0-7.554687 3.386718-7.554687 7.554687 0 4.183594 3.375 7.554688 7.554687 7.554688h311.542969c8.046875 0 14.605469-6.546875 14.605469-14.605469v-262.878906c0-2.910156-1.671875-5.570313-4.3125-6.820313zm-435.390625-15.621093v44.882812l-47.164063-22.441406zm-57.1875 273.324218v-238.925781c.089844.050781 145.890625 69.425781 155.277344 73.886719zm409.484375-221.246094c-.105469.050782-167.976562 80.523438-169.992188 79.554688-6.96875-3.3125-160.246093-76.25-167.195312-79.554688v-247.429687h337.1875zm15.109375-7.195312v-44.882812l47.164063 22.441406zm0 0"/></svg>