<?xml version="1.0" encoding="utf-8"?>
<!-- Generator: Adobe Illustrator 24.0.0, SVG Export Plug-In . SVG Version: 6.00 Build 0)  -->
<svg version="1.1" xmlns="http://www.w3.org/2000/svg" xmlns:xlink="http://www.w3.org/1999/xlink" x="0px" y="0px"
	 viewBox="0 0 500 500" style="enable-background:new 0 0 500 500;" xml:space="preserve">
<style type="text/css">
	.st0{display:none;}
	.st1{display:inline;fill:#EFF3F6;}
	.st2{clip-path:url(#SVGID_2_);}
	.st3{opacity:0.18;fill:#D6D6D6;}
	.st4{fill:#E2A27D;}
	.st5{fill:#D99676;}
	.st6{fill:#FDFFFB;}
	.st7{fill:#E9C3AE;}
	.st8{fill:#54749B;}
	.st9{fill:#707070;}
	.st10{font-family:'OpenSans-Bold';}
	.st11{font-size:17.5671px;}
	.st12{fill:#DADADA;}
</style>
<g id="BACKGROUND" class="st0">
	<rect class="st1" width="500" height="500"/>
</g>
<g id="OBJECTS">
	<g>
		<defs>
			<rect id="SVGID_1_" x="3.78" width="496.22" height="500"/>
		</defs>
		<clipPath id="SVGID_2_">
			<use xlink:href="#SVGID_1_"  style="overflow:visible;"/>
		</clipPath>
		<g class="st2">
			<g>
				<path class="st3" d="M121.75,198.22l0.14-0.04l-10.75-39.62l4.41-1.2c0.01,0.05,0.01,0.09,0.02,0.14
					c1.07,3.93,5.11,6.25,9.04,5.18c3.93-1.07,6.25-5.11,5.18-9.04c-0.01-0.05-0.04-0.09-0.05-0.13l4.89-1.33
					c0.01,0.05,0.01,0.09,0.02,0.14c1.07,3.93,5.11,6.25,9.04,5.18c3.93-1.07,6.25-5.11,5.18-9.04c-0.01-0.05-0.04-0.09-0.05-0.13
					l4.89-1.33c0.01,0.05,0.01,0.09,0.02,0.14c1.07,3.93,5.11,6.25,9.04,5.18c3.93-1.07,6.25-5.11,5.18-9.04
					c-0.01-0.05-0.04-0.09-0.05-0.13l4.89-1.33c0.01,0.05,0.01,0.09,0.02,0.14c1.07,3.93,5.11,6.25,9.04,5.18
					c3.93-1.07,6.25-5.11,5.18-9.04c-0.01-0.05-0.04-0.09-0.05-0.13l4.89-1.33c0.01,0.05,0.01,0.09,0.02,0.14
					c1.07,3.93,5.11,6.25,9.04,5.18c3.93-1.07,6.25-5.11,5.18-9.04c-0.01-0.05-0.04-0.09-0.05-0.13l4.89-1.33
					c0.01,0.05,0.01,0.09,0.02,0.14c1.07,3.93,5.11,6.25,9.04,5.18c3.93-1.07,6.25-5.11,5.18-9.04c-0.01-0.05-0.04-0.09-0.05-0.13
					l4.89-1.33c0.01,0.05,0.01,0.09,0.02,0.14c1.07,3.93,5.11,6.25,9.04,5.18c3.93-1.07,6.25-5.11,5.18-9.04
					c-0.01-0.05-0.04-0.09-0.05-0.13l4.89-1.33c0.01,0.05,0.01,0.09,0.02,0.14c1.07,3.93,5.11,6.25,9.04,5.18
					c3.93-1.07,6.25-5.11,5.18-9.04c-0.01-0.05-0.04-0.09-0.05-0.13l4.87-1.32l54.35,200.89l10.75,39.62l-4.41,1.2
					c-0.01-0.05-0.01-0.09-0.02-0.14c-1.07-3.93-5.11-6.25-9.04-5.18c-3.93,1.07-6.25,5.11-5.18,9.04c0.01,0.05,0.04,0.09,0.05,0.13
					l-4.89,1.33c-0.01-0.05-0.01-0.09-0.02-0.14c-1.07-3.93-5.11-6.25-9.04-5.18c-3.93,1.07-6.25,5.11-5.18,9.04
					c0.01,0.05,0.04,0.09,0.05,0.13l-4.89,1.33c-0.01-0.05-0.01-0.09-0.02-0.14c-1.07-3.93-5.11-6.25-9.04-5.18
					c-3.93,1.07-6.25,5.11-5.18,9.04c0.01,0.05,0.04,0.09,0.05,0.13l-4.89,1.33c-0.01-0.05-0.01-0.09-0.02-0.14
					c-1.07-3.93-5.11-6.25-9.04-5.18c-3.93,1.07-6.25,5.11-5.18,9.04c0.01,0.05,0.04,0.09,0.05,0.13l-4.89,1.33
					c-0.01-0.05-0.01-0.09-0.02-0.14c-1.07-3.93-5.11-6.25-9.04-5.18c-3.93,1.07-6.25,5.11-5.18,9.04c0.01,0.05,0.04,0.09,0.05,0.13
					l-4.89,1.33c-0.01-0.05-0.01-0.09-0.02-0.14c-1.07-3.93-5.11-6.25-9.04-5.18c-3.93,1.07-6.25,5.11-5.18,9.04
					c0.01,0.05,0.04,0.09,0.05,0.13l-4.89,1.33c-0.01-0.05-0.01-0.09-0.02-0.14c-1.07-3.93-5.11-6.25-9.04-5.18
					c-3.93,1.07-6.25,5.11-5.18,9.04c0.01,0.05,0.04,0.09,0.05,0.13l-4.89,1.33c-0.01-0.05-0.01-0.09-0.02-0.14
					c-1.07-3.93-5.11-6.25-9.04-5.18c-3.93,1.07-6.25,5.11-5.18,9.04c0.01,0.05,0.04,0.09,0.05,0.13l-4.87,1.32L121.75,198.22z"/>
				<path class="st4" d="M315.66,242.13l67.51,30.24c6.53,2.93,11.98,7.84,15.56,14.04l41.8,101.36l-65.38,48.41L337.21,301.9
					l-8.68-14.11L315.66,242.13z"/>
				<polygon class="st4" points="440.53,387.78 470.45,421.27 402.17,471.03 375.15,436.19 				"/>
				<path class="st5" d="M327.49,282.07l-6-23.87l33.73,23.72c7.69,4.73,13.4,12.1,16.05,20.73l13.3,29.57L327.49,282.07z"/>
				<path class="st5" d="M294.23,320.25l6.26,18.17c3,8.69,9.91,15.47,18.67,18.29l17.85,5.75l-27-52.21L294.23,320.25z"/>
				<path class="st5" d="M302.73,340.21l6.26,18.17c3,8.69,9.91,15.47,18.67,18.29l17.85,5.75l-27-52.21L302.73,340.21z"/>
				<path class="st5" d="M320.22,364.25l6.26,18.17c3,8.69,9.91,15.47,18.67,18.29l17.85,5.75l-27-52.21L320.22,364.25z"/>
				<path class="st6" d="M132.96,161.76l0.14-0.04l-10.75-39.62l4.41-1.2c0.01,0.05,0.01,0.09,0.02,0.14
					c1.07,3.93,5.11,6.25,9.04,5.18c3.93-1.07,6.25-5.11,5.18-9.04c-0.01-0.05-0.04-0.09-0.05-0.13l4.89-1.33
					c0.01,0.05,0.01,0.09,0.02,0.14c1.07,3.93,5.11,6.25,9.04,5.18c3.93-1.07,6.25-5.11,5.18-9.04c-0.01-0.05-0.04-0.09-0.05-0.13
					l4.89-1.33c0.01,0.05,0.01,0.09,0.02,0.14c1.07,3.93,5.11,6.25,9.04,5.18c3.93-1.07,6.25-5.11,5.18-9.04
					c-0.01-0.05-0.04-0.09-0.05-0.13l4.89-1.33c0.01,0.05,0.01,0.09,0.02,0.14c1.07,3.93,5.11,6.25,9.04,5.18
					c3.93-1.07,6.25-5.11,5.18-9.04c-0.01-0.05-0.04-0.09-0.05-0.13l4.89-1.33c0.01,0.05,0.01,0.09,0.02,0.14
					c1.07,3.93,5.11,6.25,9.04,5.18c3.93-1.07,6.25-5.11,5.18-9.04c-0.01-0.05-0.04-0.09-0.05-0.13l4.89-1.33
					c0.01,0.05,0.01,0.09,0.02,0.14c1.07,3.93,5.11,6.25,9.04,5.18c3.93-1.07,6.25-5.11,5.18-9.04c-0.01-0.05-0.04-0.09-0.05-0.13
					l4.89-1.33c0.01,0.05,0.01,0.09,0.02,0.14c1.07,3.93,5.11,6.25,9.04,5.18c3.93-1.07,6.25-5.11,5.18-9.04
					c-0.01-0.05-0.04-0.09-0.05-0.13l4.89-1.33c0.01,0.05,0.01,0.09,0.02,0.14c1.07,3.93,5.11,6.25,9.04,5.18
					c3.93-1.07,6.25-5.11,5.18-9.04c-0.01-0.05-0.04-0.09-0.05-0.13l4.87-1.32l54.35,200.89L344.52,320l-4.41,1.2
					c-0.01-0.05-0.01-0.09-0.02-0.14c-1.07-3.93-5.11-6.25-9.04-5.18c-3.93,1.07-6.25,5.11-5.18,9.04c0.01,0.05,0.04,0.09,0.05,0.13
					l-4.89,1.33c-0.01-0.05-0.01-0.09-0.02-0.14c-1.07-3.93-5.11-6.25-9.04-5.18c-3.93,1.07-6.25,5.11-5.18,9.04
					c0.01,0.05,0.04,0.09,0.05,0.13l-4.89,1.33c-0.01-0.05-0.01-0.09-0.02-0.14c-1.07-3.93-5.11-6.25-9.04-5.18
					c-3.93,1.07-6.25,5.11-5.18,9.04c0.01,0.05,0.04,0.09,0.05,0.13l-4.89,1.33c-0.01-0.05-0.01-0.09-0.02-0.14
					c-1.07-3.93-5.11-6.25-9.04-5.18c-3.93,1.07-6.25,5.11-5.18,9.04c0.01,0.05,0.04,0.09,0.05,0.13l-4.89,1.33
					c-0.01-0.05-0.01-0.09-0.02-0.14c-1.07-3.93-5.11-6.25-9.04-5.18c-3.93,1.07-6.25,5.11-5.18,9.04c0.01,0.05,0.04,0.09,0.05,0.13
					l-4.89,1.33c-0.01-0.05-0.01-0.09-0.02-0.14c-1.07-3.93-5.11-6.25-9.04-5.18c-3.93,1.07-6.25,5.11-5.18,9.04
					c0.01,0.05,0.04,0.09,0.05,0.13l-4.89,1.33c-0.01-0.05-0.01-0.09-0.02-0.14c-1.07-3.93-5.11-6.25-9.04-5.18
					c-3.93,1.07-6.25,5.11-5.18,9.04c0.01,0.05,0.04,0.09,0.05,0.13l-4.89,1.33c-0.01-0.05-0.01-0.09-0.02-0.14
					c-1.07-3.93-5.11-6.25-9.04-5.18c-3.93,1.07-6.25,5.11-5.18,9.04c0.01,0.05,0.04,0.09,0.05,0.13l-4.87,1.32L132.96,161.76z"/>
				<g>
					<path class="st4" d="M375.15,436.19l-32.25-40.32c-7.65-9.57-13.75-20.28-18.06-31.75l-14.09-37.49l-30.05-46.78
						c-5.33-8.29-2.9-19.33,5.42-24.61l0.63-0.4c7.87-5,18.26-3.08,23.81,4.4l22.61,30.45l40.29,33L375.15,436.19z"/>
					<path class="st7" d="M293.21,282.23l15.65-10.05c1.23-0.79,1.59-2.44,0.8-3.67l-2.83-4.41c-3.25-5.06-9.98-6.53-15.04-3.28
						l-1.8,1.16c-5.06,3.25-6.53,9.98-3.28,15.04l2.83,4.41C290.33,282.66,291.97,283.02,293.21,282.23z"/>
				</g>
			</g>
			<polygon class="st6" points="459.36,397.24 377.13,453.05 391.65,472.09 474.17,414.96 			"/>
			<polygon class="st8" points="485.34,404.39 381.11,481.07 443.63,561.27 547.32,480.26 			"/>
			<g>
				<g>
					<text transform="matrix(0.9654 -0.2608 0.2608 0.9654 178.1753 149.6745)" class="st9 st10 st11">RECEIPT</text>
					
						<rect x="155.03" y="146.52" transform="matrix(0.9654 -0.2608 0.2608 0.9654 -31.4142 61.1005)" class="st9" width="119.06" height="4.83"/>
					
						<rect x="180.9" y="242.3" transform="matrix(0.9654 -0.2608 0.2608 0.9654 -55.4926 71.1588)" class="st9" width="119.06" height="4.83"/>
					
						<rect x="214.7" y="255.68" transform="matrix(0.9654 -0.2608 0.2608 0.9654 -58.9109 72.1575)" class="st9" width="55.57" height="4.83"/>
					
						<rect x="163.13" y="179.98" transform="matrix(0.9654 -0.2608 0.2608 0.9654 -40.7636 57.5429)" class="st12" width="66.69" height="4.83"/>
					
						<rect x="167.13" y="197.68" transform="matrix(0.9654 -0.2608 0.2608 0.9654 -45.9891 53.5518)" class="st12" width="23.38" height="4.83"/>
					
						<rect x="169.98" y="206.62" transform="matrix(0.9654 -0.2608 0.2608 0.9654 -47.8105 57.7121)" class="st12" width="47.23" height="4.83"/>
					
						<rect x="172.9" y="216.14" transform="matrix(0.9654 -0.2608 0.2608 0.9654 -49.8536 61.3401)" class="st12" width="66.69" height="4.83"/>
					
						<rect x="176.82" y="233.21" transform="matrix(0.9654 -0.2608 0.2608 0.9654 -54.8354 57.9337)" class="st12" width="28.2" height="4.83"/>
					
						<rect x="251.22" y="161.45" transform="matrix(0.9654 -0.2608 0.2608 0.9654 -33.5577 74.792)" class="st12" width="27.74" height="4.83"/>
					
						<rect x="254.47" y="173.5" transform="matrix(0.9654 -0.2608 0.2608 0.9654 -36.588 76.0589)" class="st12" width="27.74" height="4.83"/>
					
						<rect x="257.73" y="185.55" transform="matrix(0.9654 -0.2608 0.2608 0.9654 -39.6177 77.3235)" class="st12" width="27.74" height="4.83"/>
					
						<rect x="260.98" y="197.6" transform="matrix(0.9654 -0.2608 0.2608 0.9654 -42.6481 78.5904)" class="st12" width="27.74" height="4.83"/>
					
						<rect x="264.24" y="209.66" transform="matrix(0.9654 -0.2608 0.2608 0.9654 -45.6777 79.8551)" class="st12" width="27.74" height="4.83"/>
				</g>
				<g>
					
						<rect x="196.61" y="296.82" transform="matrix(0.9654 -0.2608 0.2608 0.9654 -74.6874 62.3507)" class="st9" width="2.03" height="31.65"/>
					
						<rect x="200.88" y="295.67" transform="matrix(0.9654 -0.2608 0.2608 0.9654 -74.2396 63.4234)" class="st9" width="2.03" height="31.65"/>
					
						<rect x="211.62" y="292.9" transform="matrix(0.9654 -0.2608 0.2608 0.9654 -73.1643 65.9967)" class="st9" width="1.02" height="31.65"/>
					
						<rect x="214.88" y="292.02" transform="matrix(0.9654 -0.2608 0.2608 0.9654 -72.8226 66.8148)" class="st9" width="1.02" height="31.65"/>
					
						<rect x="205.24" y="294.09" transform="matrix(0.9654 -0.2608 0.2608 0.9654 -73.6265 64.8853)" class="st9" width="4.96" height="31.65"/>
					
						<rect x="218.06" y="290.63" transform="matrix(0.9654 -0.2608 0.2608 0.9654 -72.2796 68.1095)" class="st9" width="4.96" height="31.65"/>
					
						<rect x="223.87" y="289.46" transform="matrix(0.9654 -0.2608 0.2608 0.9654 -71.8248 69.2034)" class="st9" width="2.03" height="31.65"/>
					
						<rect x="228.14" y="288.3" transform="matrix(0.9654 -0.2608 0.2608 0.9654 -71.3768 70.2758)" class="st9" width="2.03" height="31.65"/>
					
						<rect x="252.09" y="281.83" transform="matrix(0.9654 -0.2608 0.2608 0.9654 -68.8605 76.2992)" class="st9" width="2.03" height="31.65"/>
					
						<rect x="256.36" y="280.68" transform="matrix(0.9654 -0.2608 0.2608 0.9654 -68.4153 77.3758)" class="st9" width="2.03" height="31.65"/>
					
						<rect x="238.88" y="285.54" transform="matrix(0.9654 -0.2608 0.2608 0.9654 -70.3021 72.8499)" class="st9" width="1.02" height="31.65"/>
					
						<rect x="242.14" y="284.66" transform="matrix(0.9654 -0.2608 0.2608 0.9654 -69.9603 73.668)" class="st9" width="1.02" height="31.65"/>
					
						<rect x="232.5" y="286.73" transform="matrix(0.9654 -0.2607 0.2607 0.9654 -70.7627 71.7362)" class="st9" width="4.96" height="31.65"/>
					
						<rect x="245.32" y="283.27" transform="matrix(0.9654 -0.2608 0.2608 0.9654 -69.4171 74.9621)" class="st9" width="4.96" height="31.65"/>
				</g>
			</g>
		</g>
	</g>
</g>
<g id="DESIGNED_BY_FREEPIK">
</g>
</svg>
