<?xml version="1.0" encoding="utf-8"?>
<!-- Generator: Adobe Illustrator 24.0.0, SVG Export Plug-In . SVG Version: 6.00 Build 0)  -->
<svg version="1.1" xmlns="http://www.w3.org/2000/svg" xmlns:xlink="http://www.w3.org/1999/xlink" x="0px" y="0px"
	 viewBox="0 0 500 500" style="enable-background:new 0 0 500 500;" xml:space="preserve">
<style type="text/css">
	.st0{display:none;}
	.st1{display:inline;fill:#29D9E7;}
	.st2{fill:#0077D4;}
	.st3{fill:#FFFFFF;}
	.st4{opacity:0.5;}
	.st5{fill:#9798A0;}
	.st6{opacity:0.3;fill:#FFFFFF;}
	.st7{fill:#29D9E7;}
	.st8{fill:#4D4D4D;}
	.st9{fill:#1A1A1A;}
	.st10{opacity:0.5;fill:#FFFFFF;}
	.st11{fill:#333333;}
	.st12{clip-path:url(#SVGID_4_);}
</style>
<g id="BACKGROUND" class="st0">
	<rect class="st1" width="500" height="500"/>
</g>
<g id="OBJECTS">
	<g>
		<g>
			<g>
				<g>
					<path class="st2" d="M348.63,171.16h-32.09v41.14h32.09c11.36,0,20.57-9.21,20.57-20.57
						C369.2,180.37,359.99,171.16,348.63,171.16z"/>
					<path class="st3" d="M313.25,171.16H115.43c-11.36,0-20.57,9.21-20.57,20.57c0,11.36,9.21,20.57,20.57,20.57h197.83V171.16z"/>
				</g>
				<g>
					<path class="st3" d="M341.17,192.74c-2.64,2.64-6.94,2.64-9.58,0c-2.64-2.64-2.64-6.94,0-9.58c2.64-2.64,6.94-2.64,9.58,0
						C343.81,185.8,343.81,190.1,341.17,192.74z M333,184.58c-1.86,1.86-1.86,4.88,0,6.74c1.86,1.86,4.88,1.86,6.74,0
						c1.86-1.86,1.86-4.88,0-6.74C337.89,182.72,334.86,182.72,333,184.58z"/>
					
						<rect x="340.63" y="191.54" transform="matrix(0.7071 -0.7071 0.7071 0.7071 -36.5615 298.1518)" class="st3" width="2.01" height="3.34"/>
					<path class="st3" d="M350.27,201.85c-0.59,0.59-1.54,0.59-2.13,0l-6.03-6.03c-0.59-0.59-0.59-1.54,0-2.13
						c0.59-0.59,1.54-0.59,2.13,0l6.03,6.03C350.86,200.3,350.86,201.26,350.27,201.85z"/>
				</g>
			</g>
			<g class="st4">
				<rect x="118.26" y="152.67" class="st5" width="116.14" height="4.07"/>
				<rect x="118.26" y="161.21" class="st5" width="116.14" height="4.07"/>
				<rect x="118.26" y="169.75" class="st5" width="116.14" height="4.07"/>
				<rect x="118.26" y="178.29" class="st5" width="116.14" height="4.07"/>
				<rect x="118.26" y="186.83" class="st5" width="116.14" height="4.07"/>
				<rect x="118.26" y="195.37" class="st5" width="116.14" height="4.07"/>
				<rect x="118.26" y="203.91" class="st5" width="82.41" height="4.07"/>
			</g>
			<g>
				<polygon class="st6" points="219.82,161.77 249.4,63.1 278.22,161.77 				"/>
				<polygon class="st6" points="252.55,161.77 280.05,92.7 310.95,161.77 				"/>
				<polygon class="st6" points="284.48,161.77 313.02,104.08 342.88,161.77 				"/>
				<polygon class="st6" points="320.34,161.77 350.97,87.4 378.74,161.77 				"/>
				<g>
					<path class="st3" d="M211.66,162.81c-0.38,0-0.75-0.21-0.93-0.58c-0.24-0.47-0.08-1.04,0.34-1.33
						c2.27-1.88,61.9-61.75,93.2-93.23c0.2-0.2,0.46-0.31,0.74-0.31h0c0.28,0,0.54,0.11,0.74,0.31l50.07,50.07
						c0.41,0.41,0.41,1.07,0,1.47c-0.41,0.41-1.07,0.41-1.47,0l-49.33-49.33c-34.6,34.8-91.86,92.29-92.89,92.81
						C211.98,162.78,211.82,162.81,211.66,162.81z"/>
					<g>
						<polygon class="st3" points="350.43,121.04 360.27,123.67 357.64,113.83 						"/>
					</g>
				</g>
				<g>
					<path class="st3" d="M280.07,147.69c-0.15,0-0.3-0.03-0.45-0.1l-71.54-34.21c-0.52-0.25-0.74-0.87-0.49-1.39
						c0.25-0.52,0.87-0.74,1.39-0.49l70.71,33.82l26.41-41.04c0.31-0.48,0.96-0.62,1.44-0.31c0.48,0.31,0.62,0.96,0.31,1.44
						l-26.91,41.81C280.75,147.52,280.41,147.69,280.07,147.69z"/>
					<g>
						<polygon class="st3" points="310.46,108.85 310.95,98.67 301.89,103.33 						"/>
					</g>
				</g>
			</g>
			<g>
				<path class="st7" d="M154.33,329.22c-18.18,3.83-36.08-7.84-39.91-26.02c-3.83-18.18,7.84-36.08,26.02-39.91
					c18.18-3.83,36.08,7.84,39.91,26.02C184.17,307.48,172.5,325.39,154.33,329.22z M140.85,265.27
					c-17.08,3.6-28.05,20.43-24.45,37.51c3.6,17.08,20.43,28.05,37.51,24.45c17.08-3.6,28.05-20.43,24.45-37.51
					C174.76,272.64,157.93,261.67,140.85,265.27z"/>
				<path class="st7" d="M154.33,329.22c-10.05,2.12-21.35-10.94-25.18-29.12c-3.83-18.18,1.23-34.69,11.28-36.81
					c10.05-2.12,21.35,10.94,25.18,29.12C169.44,310.59,164.38,327.1,154.33,329.22z M140.85,265.27
					c-8.96,1.89-13.32,17.32-9.72,34.41c3.6,17.08,13.82,29.45,22.78,27.56c8.96-1.89,13.32-17.32,9.72-34.41
					C160.03,275.75,149.81,263.38,140.85,265.27z"/>
				<path class="st7" d="M154.33,329.22c-6.2,1.31-12.93-30.3-13.21-31.64c-0.28-1.35-6.88-32.98-0.68-34.28
					c6.19-1.31,12.93,30.3,13.21,31.64C153.93,296.28,160.52,327.91,154.33,329.22z M140.83,265.27
					c-1.41,0.76-1.91,12.08,2.26,31.89c4.17,19.81,9.2,29.96,10.84,30.08c1.41-0.76,1.91-12.08-2.26-31.88
					C147.49,275.55,142.47,265.39,140.83,265.27z"/>
				
					<rect x="114.7" y="295.24" transform="matrix(0.9785 -0.2062 0.2062 0.9785 -57.9266 36.7609)" class="st7" width="65.35" height="2.02"/>
			</g>
			<g>
				<path class="st7" d="M212.66,259.74c-9.09,8.92-23.75,8.78-32.67-0.31c-8.92-9.09-8.78-23.75,0.31-32.67
					c9.09-8.92,23.75-8.78,32.67,0.31C221.89,236.16,221.75,250.82,212.66,259.74z M181.27,227.75c-8.55,8.39-8.68,22.16-0.29,30.71
					c8.39,8.55,22.16,8.68,30.71,0.29c8.55-8.39,8.68-22.16,0.29-30.7C203.59,219.5,189.82,219.37,181.27,227.75z"/>
				<path class="st7" d="M212.66,259.74c-5.03,4.93-16.38,1.55-25.3-7.54c-8.92-9.09-12.09-20.5-7.06-25.44
					c5.03-4.93,16.38-1.55,25.3,7.54C214.52,243.39,217.69,254.8,212.66,259.74z M181.27,227.75c-4.48,4.4-1.31,14.93,7.08,23.48
					c8.38,8.55,18.85,11.92,23.34,7.52c4.48-4.4,1.31-14.93-7.08-23.47C196.22,226.73,185.76,223.35,181.27,227.75z"/>
				<path class="st7" d="M212.66,259.74c-3.1,3.04-18.65-12.74-19.31-13.41c-0.66-0.67-16.14-16.52-13.04-19.56
					c3.1-3.04,18.65,12.74,19.31,13.41C200.27,240.85,215.76,256.7,212.66,259.74z M181.26,227.76c-0.54,0.96,3.35,7.69,13.07,17.59
					c9.72,9.91,16.37,13.92,17.36,13.39c0.54-0.96-3.35-7.69-13.07-17.59C188.9,231.24,182.25,227.22,181.26,227.76z"/>
				
					<rect x="174.07" y="242.56" transform="matrix(0.7138 -0.7004 0.7004 0.7138 -114.1282 207.2298)" class="st7" width="44.81" height="1.39"/>
			</g>
			<g>
				<path class="st7" d="M169.41,99.24c-0.52,0-0.95-0.42-0.95-0.95v-4.74c0-0.52,0.42-0.95,0.95-0.95c0.52,0,0.95,0.42,0.95,0.95
					v4.74C170.36,98.82,169.93,99.24,169.41,99.24z"/>
				<path class="st7" d="M165.96,100.87c-0.24,0-0.49-0.09-0.67-0.28l-3.36-3.36c-0.37-0.37-0.37-0.97,0-1.34
					c0.37-0.37,0.97-0.37,1.34,0l3.36,3.35c0.37,0.37,0.37,0.97,0,1.34C166.44,100.78,166.2,100.87,165.96,100.87z"/>
				<path class="st7" d="M164.66,104.46h-4.74c-0.52,0-0.95-0.42-0.95-0.95c0-0.52,0.42-0.95,0.95-0.95h4.74
					c0.52,0,0.95,0.42,0.95,0.95C165.61,104.04,165.19,104.46,164.66,104.46z"/>
				<path class="st7" d="M162.94,111.27c-0.24,0-0.49-0.09-0.67-0.28c-0.37-0.37-0.37-0.97,0-1.34l3.35-3.36
					c0.37-0.37,0.97-0.37,1.34,0c0.37,0.37,0.37,0.97,0,1.34l-3.36,3.36C163.42,111.18,163.18,111.27,162.94,111.27z"/>
				<path class="st7" d="M169.88,113.95c-0.52,0-0.95-0.42-0.95-0.95v-4.74c0-0.52,0.42-0.95,0.95-0.95c0.52,0,0.95,0.42,0.95,0.95
					V113C170.83,113.53,170.41,113.95,169.88,113.95z"/>
				<path class="st7" d="M176.69,110.94c-0.24,0-0.49-0.09-0.67-0.28l-3.35-3.36c-0.37-0.37-0.37-0.97,0-1.34
					c0.37-0.37,0.97-0.37,1.34,0l3.36,3.36c0.37,0.37,0.37,0.97,0,1.34C177.18,110.84,176.93,110.94,176.69,110.94z"/>
				<path class="st7" d="M179.37,103.99h-4.74c-0.52,0-0.95-0.42-0.95-0.95c0-0.52,0.42-0.95,0.95-0.95h4.74
					c0.52,0,0.95,0.42,0.95,0.95C180.32,103.56,179.9,103.99,179.37,103.99z"/>
				<path class="st7" d="M173,100.54c-0.24,0-0.49-0.09-0.67-0.28c-0.37-0.37-0.37-0.97,0-1.34l3.36-3.36
					c0.37-0.37,0.97-0.37,1.34,0c0.37,0.37,0.37,0.97,0,1.34l-3.36,3.36C173.49,100.44,173.24,100.54,173,100.54z"/>
			</g>
			<g>
				<path class="st7" d="M135.94,235.54c-0.52,0-0.95-0.42-0.95-0.95v-4.74c0-0.52,0.42-0.95,0.95-0.95c0.52,0,0.95,0.42,0.95,0.95
					v4.74C136.89,235.11,136.47,235.54,135.94,235.54z"/>
				<path class="st7" d="M132.49,237.16c-0.24,0-0.49-0.09-0.67-0.28l-3.36-3.36c-0.37-0.37-0.37-0.97,0-1.34
					c0.37-0.37,0.97-0.37,1.34,0l3.35,3.36c0.37,0.37,0.37,0.97,0,1.34C132.98,237.07,132.73,237.16,132.49,237.16z"/>
				<path class="st7" d="M131.2,240.76h-4.74c-0.52,0-0.95-0.42-0.95-0.95c0-0.52,0.42-0.95,0.95-0.95h4.74
					c0.52,0,0.95,0.42,0.95,0.95C132.15,240.33,131.72,240.76,131.2,240.76z"/>
				<path class="st7" d="M129.47,247.57c-0.24,0-0.49-0.09-0.67-0.28c-0.37-0.37-0.37-0.97,0-1.34l3.35-3.35
					c0.37-0.37,0.97-0.37,1.34,0c0.37,0.37,0.37,0.97,0,1.34l-3.36,3.36C129.96,247.47,129.71,247.57,129.47,247.57z"/>
				<path class="st7" d="M136.42,250.25c-0.52,0-0.95-0.43-0.95-0.95v-4.74c0-0.52,0.42-0.95,0.95-0.95c0.52,0,0.95,0.42,0.95,0.95
					v4.74C137.37,249.82,136.94,250.25,136.42,250.25z"/>
				<path class="st7" d="M143.23,247.23c-0.24,0-0.49-0.09-0.67-0.28l-3.36-3.36c-0.37-0.37-0.37-0.97,0-1.34
					c0.37-0.37,0.97-0.37,1.34,0l3.36,3.36c0.37,0.37,0.37,0.97,0,1.34C143.71,247.14,143.47,247.23,143.23,247.23z"/>
				<path class="st7" d="M145.91,240.28h-4.74c-0.52,0-0.95-0.42-0.95-0.95c0-0.52,0.42-0.95,0.95-0.95h4.74
					c0.52,0,0.95,0.42,0.95,0.95C146.86,239.86,146.43,240.28,145.91,240.28z"/>
				<path class="st7" d="M139.54,236.83c-0.24,0-0.49-0.09-0.67-0.28c-0.37-0.37-0.37-0.97,0-1.34l3.36-3.36
					c0.37-0.37,0.97-0.37,1.34,0c0.37,0.37,0.37,0.97,0,1.34l-3.35,3.35C140.02,236.74,139.78,236.83,139.54,236.83z"/>
			</g>
			<g>
				<path class="st7" d="M100.08,136.35c-0.52,0-0.95-0.42-0.95-0.95v-4.74c0-0.52,0.42-0.95,0.95-0.95c0.52,0,0.95,0.42,0.95,0.95
					v4.74C101.02,135.92,100.6,136.35,100.08,136.35z"/>
				<path class="st7" d="M96.62,137.98c-0.24,0-0.49-0.09-0.67-0.28l-3.36-3.36c-0.37-0.37-0.37-0.97,0-1.34
					c0.37-0.37,0.97-0.37,1.34,0l3.35,3.35c0.37,0.37,0.37,0.97,0,1.34C97.11,137.88,96.87,137.98,96.62,137.98z"/>
				<path class="st7" d="M95.33,141.57h-4.74c-0.52,0-0.95-0.42-0.95-0.95c0-0.52,0.42-0.95,0.95-0.95h4.74
					c0.52,0,0.95,0.42,0.95,0.95C96.28,141.14,95.86,141.57,95.33,141.57z"/>
				<path class="st7" d="M93.6,148.38c-0.24,0-0.49-0.09-0.67-0.28c-0.37-0.37-0.37-0.97,0-1.34l3.35-3.36
					c0.37-0.37,0.97-0.37,1.34,0c0.37,0.37,0.37,0.97,0,1.34l-3.36,3.36C94.09,148.28,93.85,148.38,93.6,148.38z"/>
				<path class="st7" d="M100.55,151.06c-0.52,0-0.95-0.42-0.95-0.95v-4.74c0-0.52,0.42-0.95,0.95-0.95c0.52,0,0.95,0.42,0.95,0.95
					v4.74C101.5,150.63,101.07,151.06,100.55,151.06z"/>
				<path class="st7" d="M107.36,148.04c-0.24,0-0.49-0.09-0.67-0.28l-3.36-3.36c-0.37-0.37-0.37-0.97,0-1.34
					c0.37-0.37,0.97-0.37,1.34,0l3.36,3.36c0.37,0.37,0.37,0.97,0,1.34C107.84,147.95,107.6,148.04,107.36,148.04z"/>
				<path class="st7" d="M110.04,141.09h-4.74c-0.52,0-0.95-0.42-0.95-0.95c0-0.52,0.42-0.95,0.95-0.95h4.74
					c0.52,0,0.95,0.42,0.95,0.95C110.99,140.67,110.56,141.09,110.04,141.09z"/>
				<path class="st7" d="M103.67,137.64c-0.24,0-0.49-0.09-0.67-0.28c-0.37-0.37-0.37-0.97,0-1.34l3.36-3.36
					c0.37-0.37,0.97-0.37,1.34,0c0.37,0.37,0.37,0.97,0,1.34l-3.36,3.35C104.15,137.55,103.91,137.64,103.67,137.64z"/>
			</g>
			<g>
				<path class="st7" d="M223.17,284.91c-0.52,0-0.95-0.42-0.95-0.95v-4.74c0-0.52,0.42-0.95,0.95-0.95c0.52,0,0.95,0.42,0.95,0.95
					v4.74C224.12,284.48,223.69,284.91,223.17,284.91z"/>
				<path class="st7" d="M219.72,286.54c-0.24,0-0.49-0.09-0.67-0.28l-3.36-3.36c-0.37-0.37-0.37-0.97,0-1.34
					c0.37-0.37,0.97-0.37,1.34,0l3.35,3.36c0.37,0.37,0.37,0.97,0,1.34C220.2,286.44,219.96,286.54,219.72,286.54z"/>
				<path class="st7" d="M218.42,290.13h-4.74c-0.52,0-0.95-0.42-0.95-0.95c0-0.52,0.43-0.95,0.95-0.95h4.74
					c0.52,0,0.95,0.42,0.95,0.95C219.37,289.7,218.95,290.13,218.42,290.13z"/>
				<path class="st7" d="M216.7,296.94c-0.24,0-0.49-0.09-0.67-0.28c-0.37-0.37-0.37-0.97,0-1.34l3.36-3.36
					c0.37-0.37,0.97-0.37,1.34,0c0.37,0.37,0.37,0.97,0,1.34l-3.36,3.36C217.18,296.84,216.94,296.94,216.7,296.94z"/>
				<path class="st7" d="M223.64,299.62c-0.52,0-0.95-0.42-0.95-0.95v-4.74c0-0.52,0.42-0.95,0.95-0.95c0.52,0,0.95,0.42,0.95,0.95
					v4.74C224.59,299.19,224.17,299.62,223.64,299.62z"/>
				<path class="st7" d="M230.45,296.6c-0.24,0-0.49-0.09-0.67-0.28l-3.35-3.36c-0.37-0.37-0.37-0.97,0-1.34
					c0.37-0.37,0.97-0.37,1.34,0l3.36,3.36c0.37,0.37,0.37,0.97,0,1.34C230.94,296.51,230.69,296.6,230.45,296.6z"/>
				<path class="st7" d="M233.13,289.65h-4.74c-0.52,0-0.95-0.42-0.95-0.95c0-0.52,0.42-0.95,0.95-0.95h4.74
					c0.52,0,0.95,0.42,0.95,0.95C234.08,289.23,233.66,289.65,233.13,289.65z"/>
				<path class="st7" d="M226.76,286.2c-0.24,0-0.49-0.09-0.67-0.28c-0.37-0.37-0.37-0.97,0-1.34l3.36-3.36
					c0.37-0.37,0.97-0.37,1.34,0c0.37,0.37,0.37,0.97,0,1.34l-3.35,3.36C227.25,286.11,227,286.2,226.76,286.2z"/>
			</g>
		</g>
		<g>
			<g>
				
					<rect x="329.04" y="260.15" transform="matrix(0.8773 -0.4799 0.4799 0.8773 -93.6265 195.7172)" class="st8" width="13.98" height="41.7"/>
				<path class="st9" d="M341.22,275.94l-7.52-13.76c-1.91,1.3-3.9,2.52-5.97,3.65c-2.07,1.13-4.17,2.14-6.3,3.05l7.52,13.76
					c2.11-0.95,4.21-1.96,6.28-3.09C337.31,278.43,339.29,277.2,341.22,275.94z"/>
				<g class="st4">
					<defs>
						
							<ellipse id="SVGID_1_" transform="matrix(0.7071 -0.7071 0.7071 0.7071 -54.5264 263.0579)" class="st4" cx="290.28" cy="197.35" rx="71.81" ry="71.81"/>
					</defs>
					<use xlink:href="#SVGID_1_"  style="overflow:visible;fill:#DADADA;"/>
					<clipPath id="SVGID_2_">
						<use xlink:href="#SVGID_1_"  style="overflow:visible;"/>
					</clipPath>
				</g>
				<path class="st10" d="M232.01,191.89c-0.8,0.44-1.74,0.63-2.72,0.48c-2.35-0.36-3.96-2.56-3.59-4.9
					c0.7-4.55,1.89-9.04,3.52-13.35c0.84-2.22,3.33-3.34,5.55-2.49c2.22,0.84,3.34,3.33,2.49,5.55c-1.42,3.75-2.45,7.65-3.06,11.61
					C233.98,190.15,233.14,191.27,232.01,191.89z"/>
				<path class="st10" d="M264.31,255.34c-1.21,0.66-2.72,0.73-4.04,0.05c-11.61-5.98-21.06-15.2-27.33-26.68
					c-3.17-5.8-5.44-12-6.73-18.43c-0.47-2.33,1.04-4.59,3.37-5.06c2.33-0.47,4.6,1.04,5.06,3.37c1.12,5.58,3.09,10.96,5.84,16
					c5.45,9.96,13.65,17.97,23.73,23.16c2.11,1.09,2.94,3.68,1.85,5.79C265.65,254.33,265.03,254.94,264.31,255.34z"/>
				<path class="st11" d="M248.31,120.63c-42.37,23.17-57.93,76.31-34.76,118.68c23.17,42.37,76.31,57.93,118.68,34.76
					c42.37-23.17,57.93-76.31,34.76-118.68C343.82,113.02,290.68,97.45,248.31,120.63z M324.73,260.35
					c-34.79,19.03-78.43,6.25-97.46-28.54c-19.03-34.79-6.25-78.43,28.54-97.46c34.79-19.03,78.43-6.25,97.46,28.54
					C372.31,197.68,359.53,241.32,324.73,260.35z"/>
				
					<rect x="363.31" y="291.72" transform="matrix(0.8773 -0.4799 0.4799 0.8773 -123.5456 223.6346)" class="st11" width="24.74" height="123.52"/>
				
					<rect x="367.65" y="294.77" transform="matrix(0.8773 -0.4799 0.4799 0.8773 -125.6927 221.3327)" class="st8" width="4.9" height="123.52"/>
				
					<rect x="378.89" y="287.74" transform="matrix(0.8773 -0.4799 0.4799 0.8773 -120.7417 226.6465)" class="st9" width="8.13" height="123.52"/>
			</g>
		</g>
		<g>
			<path class="st7" d="M304.12,267.18c-0.52,0-0.95-0.42-0.95-0.95v-4.74c0-0.52,0.42-0.95,0.95-0.95c0.52,0,0.95,0.43,0.95,0.95
				v4.74C305.07,266.76,304.65,267.18,304.12,267.18z"/>
			<path class="st7" d="M300.67,268.81c-0.24,0-0.49-0.09-0.67-0.28l-3.36-3.36c-0.37-0.37-0.37-0.97,0-1.34
				c0.37-0.37,0.97-0.37,1.34,0l3.36,3.36c0.37,0.37,0.37,0.97,0,1.34C301.16,268.72,300.91,268.81,300.67,268.81z"/>
			<path class="st7" d="M299.38,272.4h-4.74c-0.52,0-0.95-0.42-0.95-0.95c0-0.52,0.42-0.95,0.95-0.95h4.74
				c0.52,0,0.95,0.42,0.95,0.95C300.33,271.98,299.9,272.4,299.38,272.4z"/>
			<path class="st7" d="M297.65,279.21c-0.24,0-0.49-0.09-0.67-0.28c-0.37-0.37-0.37-0.97,0-1.34l3.35-3.36
				c0.37-0.37,0.97-0.37,1.34,0c0.37,0.37,0.37,0.97,0,1.34l-3.36,3.36C298.14,279.12,297.89,279.21,297.65,279.21z"/>
			<path class="st7" d="M304.6,281.89c-0.52,0-0.95-0.43-0.95-0.95v-4.74c0-0.52,0.42-0.95,0.95-0.95c0.52,0,0.95,0.42,0.95,0.95
				v4.74C305.55,281.47,305.12,281.89,304.6,281.89z"/>
			<path class="st7" d="M311.41,278.88c-0.24,0-0.49-0.09-0.67-0.28l-3.36-3.36c-0.37-0.37-0.37-0.97,0-1.34
				c0.37-0.37,0.97-0.37,1.34,0l3.36,3.36c0.37,0.37,0.37,0.97,0,1.34C311.89,278.78,311.65,278.88,311.41,278.88z"/>
			<path class="st7" d="M314.09,271.93h-4.74c-0.52,0-0.95-0.42-0.95-0.95c0-0.52,0.42-0.95,0.95-0.95h4.74
				c0.52,0,0.95,0.42,0.95,0.95C315.04,271.5,314.61,271.93,314.09,271.93z"/>
			<path class="st7" d="M307.72,268.48c-0.24,0-0.49-0.09-0.67-0.28c-0.37-0.37-0.37-0.97,0-1.34l3.36-3.36
				c0.37-0.37,0.97-0.37,1.34,0c0.37,0.37,0.37,0.97,0,1.34l-3.36,3.36C308.2,268.38,307.96,268.48,307.72,268.48z"/>
		</g>
		<g>
			<defs>
				
					<ellipse id="SVGID_3_" transform="matrix(0.7071 -0.7071 0.7071 0.7071 -54.5264 263.058)" cx="290.28" cy="197.35" rx="71.81" ry="71.81"/>
			</defs>
			<clipPath id="SVGID_4_">
				<use xlink:href="#SVGID_3_"  style="overflow:visible;"/>
			</clipPath>
			<g class="st12">
				<g>
					<g>
						<path class="st2" d="M356.48,165.51h-39.24v50.31h39.24c13.89,0,25.16-11.26,25.16-25.16
							C381.63,176.77,370.37,165.51,356.48,165.51z"/>
						<path class="st3" d="M313.21,165.51H71.27c-13.89,0-25.16,11.26-25.16,25.16c0,13.89,11.26,25.16,25.16,25.16h241.94V165.51z"
							/>
					</g>
					<g>
						<path class="st3" d="M347.35,191.89c-3.23,3.23-8.49,3.23-11.72,0c-3.23-3.23-3.23-8.49,0-11.72c3.23-3.23,8.49-3.23,11.72,0
							C350.58,183.41,350.58,188.66,347.35,191.89z M337.37,181.91c-2.27,2.27-2.27,5.97,0,8.24c2.27,2.27,5.97,2.27,8.24,0
							c2.27-2.27,2.27-5.97,0-8.24C343.34,179.64,339.64,179.64,337.37,181.91z"/>
						
							<rect x="346.7" y="190.43" transform="matrix(0.7072 -0.707 0.707 0.7072 -34.2032 302.3629)" class="st3" width="2.45" height="4.09"/>
						<path class="st3" d="M358.49,203.03c-0.72,0.72-1.88,0.72-2.6,0l-7.38-7.38c-0.72-0.72-0.72-1.88,0-2.6
							c0.72-0.72,1.89-0.72,2.6,0l7.38,7.38C359.2,201.15,359.2,202.31,358.49,203.03z"/>
					</g>
				</g>
				<g class="st4">
					<rect x="74.74" y="142.89" class="st5" width="142.04" height="4.97"/>
					<rect x="74.74" y="153.34" class="st5" width="142.04" height="4.97"/>
					<rect x="74.74" y="163.78" class="st5" width="142.04" height="4.97"/>
					<rect x="74.74" y="174.23" class="st5" width="142.04" height="4.97"/>
					<rect x="74.74" y="184.67" class="st5" width="142.04" height="4.97"/>
					<rect x="74.74" y="195.12" class="st5" width="142.04" height="4.97"/>
					<rect x="74.74" y="205.56" class="st5" width="100.79" height="4.97"/>
				</g>
				<g>
					<polygon class="st6" points="198.94,154.02 235.12,33.35 270.37,154.02 					"/>
					<polygon class="st6" points="238.97,154.02 272.6,69.54 310.4,154.02 					"/>
					<polygon class="st6" points="278.02,154.02 312.93,83.47 349.45,154.02 					"/>
					<polygon class="st6" points="321.88,154.02 359.34,63.06 393.31,154.02 					"/>
					<g>
						<path class="st3" d="M188.97,155.3c-0.47,0-0.92-0.26-1.14-0.71c-0.29-0.58-0.1-1.27,0.42-1.62
							c2.77-2.3,75.7-75.52,113.99-114.02c0.24-0.24,0.56-0.38,0.9-0.38h0c0.34,0,0.66,0.13,0.9,0.37l61.24,61.24
							c0.5,0.5,0.5,1.31,0,1.8c-0.5,0.5-1.31,0.5-1.8,0l-60.33-60.33c-42.32,42.56-112.34,112.88-113.6,113.51
							C189.35,155.26,189.16,155.3,188.97,155.3z"/>
						<g>
							<polygon class="st3" points="358.68,104.2 370.72,107.43 367.49,95.39 							"/>
						</g>
					</g>
					<g>
						<path class="st3" d="M272.63,136.8c-0.18,0-0.37-0.04-0.55-0.12l-87.49-41.84c-0.64-0.3-0.9-1.07-0.6-1.7
							c0.3-0.63,1.06-0.9,1.7-0.6l86.47,41.36l32.31-50.19c0.38-0.59,1.17-0.76,1.76-0.38c0.59,0.38,0.76,1.17,0.38,1.76
							l-32.91,51.14C273.46,136.59,273.05,136.8,272.63,136.8z"/>
						<g>
							<polygon class="st3" points="309.8,89.3 310.4,76.85 299.31,82.55 							"/>
						</g>
					</g>
				</g>
				<g class="st4">
					<path class="st3" d="M118.85,358.81c-22.23,4.68-44.13-9.59-48.81-31.82c-4.68-22.23,9.59-44.13,31.82-48.81
						c22.23-4.68,44.12,9.59,48.81,31.82C155.35,332.23,141.07,354.12,118.85,358.81z M102.36,280.6
						c-20.89,4.4-34.31,24.99-29.91,45.88c4.4,20.89,24.99,34.31,45.88,29.91c20.89-4.4,34.31-24.98,29.91-45.88
						C143.84,289.61,123.26,276.2,102.36,280.6z"/>
					<path class="st3" d="M118.85,358.81c-12.3,2.59-26.11-13.39-30.79-35.61c-4.68-22.23,1.51-42.42,13.8-45.01
						c12.29-2.59,26.11,13.39,30.79,35.61C137.33,336.02,131.14,356.22,118.85,358.81z M102.36,280.6
						c-10.96,2.31-16.29,21.19-11.89,42.08c4.4,20.89,16.9,36.01,27.86,33.7c10.96-2.31,16.29-21.19,11.89-42.08
						C125.82,293.41,113.32,278.29,102.36,280.6z"/>
					<path class="st3" d="M118.85,358.81c-7.58,1.6-15.81-37.05-16.16-38.7c-0.35-1.65-8.41-40.33-0.83-41.93
						c7.58-1.6,15.81,37.05,16.16,38.7C118.36,318.53,126.42,357.21,118.85,358.81z M102.34,280.6c-1.73,0.93-2.34,14.77,2.77,39
						c5.1,24.22,11.25,36.64,13.25,36.78c1.73-0.93,2.34-14.77-2.77-38.99C110.49,293.17,104.34,280.75,102.34,280.6z"/>
					
						<rect x="70.39" y="317.26" transform="matrix(0.9785 -0.2062 0.2062 0.9785 -63.3088 29.6024)" class="st3" width="79.93" height="2.47"/>
				</g>
				<g class="st4">
					<path class="st3" d="M190.19,273.83c-11.12,10.91-29.04,10.74-39.95-0.38c-10.91-11.12-10.74-29.04,0.38-39.95
						c11.12-10.91,29.04-10.74,39.95,0.38C201.47,245,201.3,262.92,190.19,273.83z M151.8,234.71
						c-10.45,10.26-10.61,27.1-0.36,37.55c10.25,10.45,27.1,10.61,37.55,0.36c10.45-10.26,10.61-27.1,0.36-37.55
						C179.1,224.62,162.25,224.46,151.8,234.71z"/>
					<path class="st3" d="M190.19,273.83c-6.15,6.03-20.03,1.9-30.94-9.22c-10.91-11.12-14.78-25.07-8.63-31.11
						c6.15-6.03,20.03-1.9,30.94,9.22C192.46,253.84,196.34,267.8,190.19,273.83z M151.8,234.71c-5.48,5.38-1.6,18.26,8.66,28.71
						c10.25,10.45,23.06,14.58,28.54,9.2c5.48-5.38,1.6-18.26-8.66-28.71C170.09,233.46,157.28,229.34,151.8,234.71z"/>
					<path class="st3" d="M190.19,273.83c-3.79,3.72-22.81-15.58-23.62-16.4c-0.81-0.82-19.74-20.21-15.95-23.93
						c3.79-3.72,22.81,15.58,23.62,16.4C175.04,250.73,193.98,270.12,190.19,273.83z M151.79,234.73c-0.66,1.18,4.1,9.4,15.99,21.52
						c11.89,12.12,20.02,17.03,21.23,16.37c0.66-1.18-4.1-9.4-15.99-21.52C161.13,238.98,153,234.07,151.79,234.73z"/>
					
						<rect x="143" y="252.82" transform="matrix(0.7138 -0.7004 0.7004 0.7138 -128.8907 191.946)" class="st3" width="54.81" height="1.7"/>
				</g>
				<g>
					<path class="st3" d="M137.29,77.55c-0.64,0-1.16-0.52-1.16-1.16v-5.8c0-0.64,0.52-1.16,1.16-1.16c0.64,0,1.16,0.52,1.16,1.16
						v5.8C138.45,77.03,137.93,77.55,137.29,77.55z"/>
					<path class="st3" d="M133.07,79.54c-0.3,0-0.59-0.11-0.82-0.34l-4.1-4.1c-0.45-0.45-0.45-1.19,0-1.64
						c0.45-0.45,1.19-0.45,1.64,0l4.1,4.1c0.45,0.45,0.45,1.19,0,1.64C133.66,79.43,133.36,79.54,133.07,79.54z"/>
					<path class="st3" d="M131.49,83.93h-5.8c-0.64,0-1.16-0.52-1.16-1.16c0-0.64,0.52-1.16,1.16-1.16h5.8
						c0.64,0,1.16,0.52,1.16,1.16C132.65,83.41,132.13,83.93,131.49,83.93z"/>
					<path class="st3" d="M129.37,92.26c-0.3,0-0.59-0.11-0.82-0.34c-0.45-0.45-0.45-1.19,0-1.64l4.1-4.1
						c0.45-0.45,1.19-0.45,1.64,0c0.45,0.45,0.45,1.19,0,1.64l-4.1,4.1C129.97,92.15,129.67,92.26,129.37,92.26z"/>
					<path class="st3" d="M137.87,95.54c-0.64,0-1.16-0.52-1.16-1.16v-5.8c0-0.64,0.52-1.16,1.16-1.16c0.64,0,1.16,0.52,1.16,1.16
						v5.8C139.03,95.02,138.51,95.54,137.87,95.54z"/>
					<path class="st3" d="M146.2,91.85c-0.3,0-0.59-0.11-0.82-0.34l-4.1-4.1c-0.45-0.45-0.45-1.19,0-1.64
						c0.45-0.45,1.19-0.45,1.64,0l4.1,4.1c0.45,0.45,0.45,1.19,0,1.64C146.79,91.74,146.49,91.85,146.2,91.85z"/>
					<path class="st3" d="M149.48,83.35h-5.8c-0.64,0-1.16-0.52-1.16-1.16c0-0.64,0.52-1.16,1.16-1.16h5.8
						c0.64,0,1.16,0.52,1.16,1.16C150.64,82.83,150.12,83.35,149.48,83.35z"/>
					<path class="st3" d="M141.68,79.13c-0.3,0-0.59-0.11-0.82-0.34c-0.45-0.45-0.45-1.19,0-1.64l4.1-4.1
						c0.45-0.45,1.19-0.45,1.64,0c0.45,0.45,0.45,1.19,0,1.64l-4.1,4.1C142.28,79.02,141.98,79.13,141.68,79.13z"/>
				</g>
				<g>
					<path class="st3" d="M96.36,244.24c-0.64,0-1.16-0.52-1.16-1.16v-5.8c0-0.64,0.52-1.16,1.16-1.16c0.64,0,1.16,0.52,1.16,1.16
						v5.8C97.52,243.72,97,244.24,96.36,244.24z"/>
					<path class="st3" d="M92.14,246.23c-0.3,0-0.59-0.11-0.82-0.34l-4.1-4.1c-0.45-0.45-0.45-1.19,0-1.64
						c0.45-0.45,1.19-0.45,1.64,0l4.1,4.1c0.45,0.45,0.45,1.19,0,1.64C92.73,246.11,92.44,246.23,92.14,246.23z"/>
					<path class="st3" d="M90.56,250.62h-5.8c-0.64,0-1.16-0.52-1.16-1.16c0-0.64,0.52-1.16,1.16-1.16h5.8
						c0.64,0,1.16,0.52,1.16,1.16C91.72,250.1,91.2,250.62,90.56,250.62z"/>
					<path class="st3" d="M88.45,258.95c-0.3,0-0.59-0.11-0.82-0.34c-0.45-0.45-0.45-1.19,0-1.64l4.1-4.1
						c0.45-0.45,1.19-0.45,1.64,0c0.45,0.45,0.45,1.19,0,1.64l-4.1,4.1C89.04,258.83,88.74,258.95,88.45,258.95z"/>
					<path class="st3" d="M96.94,262.23c-0.64,0-1.16-0.52-1.16-1.16v-5.8c0-0.64,0.52-1.16,1.16-1.16c0.64,0,1.16,0.52,1.16,1.16
						v5.8C98.1,261.71,97.58,262.23,96.94,262.23z"/>
					<path class="st3" d="M105.27,258.54c-0.3,0-0.59-0.11-0.82-0.34l-4.1-4.1c-0.45-0.45-0.45-1.19,0-1.64
						c0.45-0.45,1.19-0.45,1.64,0l4.1,4.1c0.45,0.45,0.45,1.19,0,1.64C105.86,258.42,105.57,258.54,105.27,258.54z"/>
					<path class="st3" d="M108.55,250.04h-5.8c-0.64,0-1.16-0.52-1.16-1.16c0-0.64,0.52-1.16,1.16-1.16h5.8
						c0.64,0,1.16,0.52,1.16,1.16C109.71,249.52,109.19,250.04,108.55,250.04z"/>
					<path class="st3" d="M100.76,245.82c-0.3,0-0.59-0.11-0.82-0.34c-0.45-0.45-0.45-1.19,0-1.64l4.1-4.1
						c0.45-0.45,1.19-0.45,1.64,0c0.45,0.45,0.45,1.19,0,1.64l-4.1,4.1C101.35,245.7,101.05,245.82,100.76,245.82z"/>
				</g>
				<g>
					<path class="st3" d="M52.5,122.93c-0.64,0-1.16-0.52-1.16-1.16v-5.8c0-0.64,0.52-1.16,1.16-1.16c0.64,0,1.16,0.52,1.16,1.16
						v5.8C53.66,122.41,53.14,122.93,52.5,122.93z"/>
					<path class="st3" d="M48.27,124.92c-0.3,0-0.59-0.11-0.82-0.34l-4.1-4.1c-0.45-0.45-0.45-1.19,0-1.64
						c0.45-0.45,1.19-0.45,1.64,0l4.1,4.1c0.45,0.45,0.45,1.19,0,1.64C48.87,124.81,48.57,124.92,48.27,124.92z"/>
					<path class="st3" d="M46.69,129.31h-5.8c-0.64,0-1.16-0.52-1.16-1.16c0-0.64,0.52-1.16,1.16-1.16h5.8
						c0.64,0,1.16,0.52,1.16,1.16C47.85,128.79,47.34,129.31,46.69,129.31z"/>
					<path class="st3" d="M44.58,137.64c-0.3,0-0.59-0.11-0.82-0.34c-0.45-0.45-0.45-1.19,0-1.64l4.1-4.1
						c0.45-0.45,1.19-0.45,1.64,0c0.45,0.45,0.45,1.19,0,1.64l-4.1,4.1C45.17,137.53,44.88,137.64,44.58,137.64z"/>
					<path class="st3" d="M53.08,140.92c-0.64,0-1.16-0.52-1.16-1.16v-5.8c0-0.64,0.52-1.16,1.16-1.16c0.64,0,1.16,0.52,1.16,1.16
						v5.8C54.24,140.4,53.72,140.92,53.08,140.92z"/>
					<path class="st3" d="M61.4,137.23c-0.3,0-0.59-0.11-0.82-0.34l-4.1-4.1c-0.45-0.45-0.45-1.19,0-1.64
						c0.45-0.45,1.19-0.45,1.64,0l4.1,4.1c0.45,0.45,0.45,1.19,0,1.64C62,137.12,61.7,137.23,61.4,137.23z"/>
					<path class="st3" d="M64.68,128.73h-5.8c-0.64,0-1.16-0.52-1.16-1.16c0-0.64,0.52-1.16,1.16-1.16h5.8
						c0.64,0,1.16,0.52,1.16,1.16C65.84,128.21,65.32,128.73,64.68,128.73z"/>
					<path class="st3" d="M56.89,124.51c-0.3,0-0.59-0.11-0.82-0.34c-0.45-0.45-0.45-1.19,0-1.64l4.1-4.1
						c0.45-0.45,1.19-0.45,1.64,0c0.45,0.45,0.45,1.19,0,1.64l-4.1,4.1C57.48,124.4,57.19,124.51,56.89,124.51z"/>
				</g>
				<g>
					<path class="st3" d="M203.04,304.62c-0.64,0-1.16-0.52-1.16-1.16v-5.8c0-0.64,0.52-1.16,1.16-1.16c0.64,0,1.16,0.52,1.16,1.16
						v5.8C204.2,304.1,203.68,304.62,203.04,304.62z"/>
					<path class="st3" d="M198.82,306.61c-0.3,0-0.59-0.11-0.82-0.34l-4.1-4.1c-0.45-0.45-0.45-1.19,0-1.64
						c0.45-0.45,1.19-0.45,1.64,0l4.1,4.1c0.45,0.45,0.45,1.19,0,1.64C199.41,306.49,199.11,306.61,198.82,306.61z"/>
					<path class="st3" d="M197.24,311h-5.8c-0.64,0-1.16-0.52-1.16-1.16c0-0.64,0.52-1.16,1.16-1.16h5.8c0.64,0,1.16,0.52,1.16,1.16
						C198.4,310.48,197.88,311,197.24,311z"/>
					<path class="st3" d="M195.12,319.33c-0.3,0-0.59-0.11-0.82-0.34c-0.45-0.45-0.45-1.19,0-1.64l4.1-4.1
						c0.45-0.45,1.19-0.45,1.64,0c0.45,0.45,0.45,1.19,0,1.64l-4.1,4.1C195.72,319.21,195.42,319.33,195.12,319.33z"/>
					<path class="st3" d="M203.62,322.61c-0.64,0-1.16-0.52-1.16-1.16v-5.8c0-0.64,0.52-1.16,1.16-1.16c0.64,0,1.16,0.52,1.16,1.16
						v5.8C204.78,322.09,204.26,322.61,203.62,322.61z"/>
					<path class="st3" d="M211.95,318.92c-0.3,0-0.59-0.11-0.82-0.34l-4.1-4.1c-0.45-0.45-0.45-1.19,0-1.64
						c0.45-0.45,1.19-0.45,1.64,0l4.1,4.1c0.45,0.45,0.45,1.19,0,1.64C212.54,318.8,212.24,318.92,211.95,318.92z"/>
					<path class="st3" d="M215.23,310.42h-5.8c-0.64,0-1.16-0.52-1.16-1.16c0-0.64,0.52-1.16,1.16-1.16h5.8
						c0.64,0,1.16,0.52,1.16,1.16C216.39,309.9,215.87,310.42,215.23,310.42z"/>
					<path class="st3" d="M207.43,306.2c-0.3,0-0.59-0.11-0.82-0.34c-0.45-0.45-0.45-1.19,0-1.64l4.1-4.1
						c0.45-0.45,1.19-0.45,1.64,0c0.45,0.45,0.45,1.19,0,1.64l-4.1,4.1C208.03,306.08,207.73,306.2,207.43,306.2z"/>
				</g>
			</g>
		</g>
	</g>
</g>
<g id="DESIGNED_BY_FREEPIK">
</g>
</svg>
